<?xml version="1.0" encoding="UTF-8"?><svg xmlns="http://www.w3.org/2000/svg" xmlns:xlink="http://www.w3.org/1999/xlink" viewBox="0 0 234.85 225.86"><defs><style>.f{fill:url(#e);}.g,.h{fill:none;}.i{fill:#1d1d1b;}.h{stroke:#1d1d1b;stroke-width:1.44px;}</style><pattern id="e" x="0" y="0" width="72" height="72" patternTransform="translate(269.32 -1241.03)" patternUnits="userSpaceOnUse" viewBox="0 0 72 72"><g><rect class="g" width="72" height="72"/><g><line class="h" x1="71.75" y1="68.4" x2="144.25" y2="68.4"/><line class="h" x1="71.75" y1="54" x2="144.25" y2="54"/><line class="h" x1="71.75" y1="39.6" x2="144.25" y2="39.6"/><line class="h" x1="71.75" y1="25.2" x2="144.25" y2="25.2"/><line class="h" x1="71.75" y1="10.8" x2="144.25" y2="10.8"/><line class="h" x1="71.75" y1="61.2" x2="144.25" y2="61.2"/><line class="h" x1="71.75" y1="46.8" x2="144.25" y2="46.8"/><line class="h" x1="71.75" y1="32.4" x2="144.25" y2="32.4"/><line class="h" x1="71.75" y1="18" x2="144.25" y2="18"/><line class="h" x1="71.75" y1="3.6" x2="144.25" y2="3.6"/></g><g><line class="h" x1="-.25" y1="68.4" x2="72.25" y2="68.4"/><line class="h" x1="-.25" y1="54" x2="72.25" y2="54"/><line class="h" x1="-.25" y1="39.6" x2="72.25" y2="39.6"/><line class="h" x1="-.25" y1="25.2" x2="72.25" y2="25.2"/><line class="h" x1="-.25" y1="10.8" x2="72.25" y2="10.8"/><line class="h" x1="-.25" y1="61.2" x2="72.25" y2="61.2"/><line class="h" x1="-.25" y1="46.8" x2="72.25" y2="46.8"/><line class="h" x1="-.25" y1="32.4" x2="72.25" y2="32.4"/><line class="h" x1="-.25" y1="18" x2="72.25" y2="18"/><line class="h" x1="-.25" y1="3.6" x2="72.25" y2="3.6"/></g><g><line class="h" x1="-72.25" y1="68.4" x2=".25" y2="68.4"/><line class="h" x1="-72.25" y1="54" x2=".25" y2="54"/><line class="h" x1="-72.25" y1="39.6" x2=".25" y2="39.6"/><line class="h" x1="-72.25" y1="25.2" x2=".25" y2="25.2"/><line class="h" x1="-72.25" y1="10.8" x2=".25" y2="10.8"/><line class="h" x1="-72.25" y1="61.2" x2=".25" y2="61.2"/><line class="h" x1="-72.25" y1="46.8" x2=".25" y2="46.8"/><line class="h" x1="-72.25" y1="32.4" x2=".25" y2="32.4"/><line class="h" x1="-72.25" y1="18" x2=".25" y2="18"/><line class="h" x1="-72.25" y1="3.6" x2=".25" y2="3.6"/></g></g></pattern></defs><g id="a"/><g id="b"><g id="c"><g id="d"><path class="i" d="M135.93,89.57c1.09-13.35-4.64-22.41-4.64-22.41-6.11-9.11-14.36-9.92-23.66-7.1-3.47,1.08-7.27,4.18-8.84,9.86,13.44-4.76,5.06,18.71,5.06,18.71l32.08,.93Z"/><path class="f" d="M117.36,188.37l-6.43,27.21c4.19,13.7,8.38,13.7,12.57,0l-6.14-27.21Z"/><path class="f" d="M123.81,202.65l1.59,14.63c5.15,5.59,7.6,4.58,7.36-3.01l-8.95-11.62Z"/><path class="f" d="M110.61,202.65l-1.59,14.63c-5.15,5.59-7.6,4.58-7.36-3.01l8.95-11.62Z"/><path class="f" d="M83.38,155.02C36.45,148.62-2.69,112.46,.14,65.31l83.24,89.71Z"/><path class="f" d="M148.65,158.37c49.58-7.93,90.12-46.93,85.9-96.41l-85.9,96.41Z"/><polygon class="i" points="131.61 95.91 105.48 95.15 118.55 116.88 131.61 95.91"/><path class="i" d="M156.33,182.2c-11.57-14.73-10.92-24.74-10.92-23.03L234.85,57.94C224-15.01,166.26,5.25,169.98,4.31c11.75,19.35,17.75,45.8,2.05,65.58-12.58,17.31-28.07,21.92-34.69,23.13l-18.85,30.24-18.79-31.25c-3.21-.64-8.83-1.75-11.42-3.07-17.35-8.89-31.46-21.15-35.8-48.75,1.19-12.36,1.19-15.24,17.61-36.55C50.89-7-3.16,3.62,.15,63.07l86.66,94.7c-.42,6.18-10.27,21.13-10.27,21.13-14.9-3-25.09,5.25-18.62,9.59l1.9,.72c1.29-4.78,9.66-6.2,16.08-3.41,8.11,3.51,6.09,9.78,4.14,14.35,8.09-3.46,9.91-10.75,1.44-18.9l7.92-9.53,5.61,12.03,8.57-13.03-6.55,49.3,11.92-24.11,15.92,.12,11.44,24.29-7.29-50.18,8.67,13.98,5.25-10.11,8.42,12.26c-3.1,.33-7.97,15.59,2.49,18.54l3.39-2.71c-3.01-4.54-7.01-8.13,.45-11.99,11.68-2.16,11.24,4.2,11.53,4.51,2.51-.91,9.59-15.41-12.88-12.43Z"/></g></g></g></svg>