<?xml version="1.0" encoding="UTF-8"?><svg xmlns="http://www.w3.org/2000/svg" viewBox="0 0 138.72 126.63"><defs><style>.e{fill:#1d1d1b;}</style></defs><g id="a"/><g id="b"><g id="c"><g id="d"><ellipse class="e" cx="69.5" cy="112.38" rx="55.68" ry="14.25"/><path class="e" d="M107.21,49.06L98.11,7.83l-16.21,40.74L69.74,0l-12.64,49.06L41.37,7.34l-11.72,41.73L0,29.31,13.37,98.13c12.49-4.34,31.81-9.43,55.8-9.49,24.38-.05,43.98,5.11,56.56,9.49l12.98-67.95-31.51,18.89ZM19.62,92.17c-1.22,.35-2.49-.43-2.81-1.72l-6.31-24.85c-.33-1.29,.4-2.63,1.62-2.98,1.22-.35,2.49,.43,2.81,1.72l6.31,24.85c.33,1.29-.4,2.63-1.62,2.98Zm10.79-3.09h0c-1.23,.29-2.46-.55-2.73-1.86l-5.19-25.14c-.27-1.31,.52-2.61,1.75-2.9,1.23-.29,2.46,.55,2.73,1.86l5.19,25.14c.27,1.31-.52,2.61-1.75,2.9Zm10.54-2.45c-1.24,.23-2.44-.66-2.66-1.98l-4.18-25.35c-.22-1.32,.62-2.58,1.87-2.81,1.24-.23,2.44,.66,2.66,1.98l4.18,25.35c.22,1.32-.62,2.58-1.87,2.81Zm4.2-39.48c0,.78-.64,1.41-1.41,1.41h-1.76c-.78,0-1.41-.64-1.41-1.41v-8.77c0-.78,.64-1.41,1.41-1.41h1.76c.78,0,1.41,.64,1.41,1.41v8.77Zm6.77,37.44h0c-1.25,.18-2.41-.76-2.58-2.08l-3.26-25.5c-.17-1.33,.72-2.56,1.97-2.74,1.25-.18,2.41,.76,2.58,2.08l3.26,25.5c.17,1.33-.72,2.56-1.97,2.74Zm9.69-1.41c-1.26,.11-2.37-.89-2.48-2.22l-2.02-25.64c-.1-1.33,.84-2.51,2.1-2.63,1.26-.11,2.37,.89,2.48,2.22l2.02,25.64c.1,1.33-.84,2.51-2.1,2.63Zm10.19-7.64c0,1.26-1.03,2.3-2.3,2.3h0c-1.26,0-2.3-1.03-2.3-2.3v-26c0-1.26,1.03-2.3,2.3-2.3h0c1.26,0,2.3,1.03,2.3,2.3v26Zm0-36.68c0,.78-.64,1.41-1.41,1.41h-1.76c-.78,0-1.41-.64-1.41-1.41v-8.77c0-.78,.64-1.41,1.41-1.41h1.76c.78,0,1.41,.64,1.41,1.41v8.77Zm8.08,42.1c-.1,1.33-1.22,2.33-2.48,2.22-1.26-.11-2.2-1.29-2.1-2.63l2.02-25.64c.1-1.33,1.22-2.33,2.48-2.22,1.26,.11,2.2,1.29,2.1,2.63l-2.02,25.64Zm13.06-23.95l-3.26,25.5c-.17,1.33-1.33,2.26-2.58,2.08h0c-1.25-.18-2.14-1.41-1.97-2.74l3.26-25.5c.17-1.33,1.33-2.26,2.58-2.08,1.25,.18,2.14,1.41,1.97,2.74Zm.92-9.86v-8.77c0-.78,.64-1.41,1.41-1.41h1.76c.78,0,1.41,.64,1.41,1.41v8.77c0,.78-.64,1.41-1.41,1.41h-1.76c-.78,0-1.41-.64-1.41-1.41Zm11.03,12.15l-4.18,25.35c-.22,1.32-1.41,2.21-2.66,1.98-1.24-.23-2.08-1.5-1.87-2.81l4.18-25.35c.22-1.32,1.41-2.21,2.66-1.98,1.24,.23,2.08,1.5,1.87,2.81Zm11.63,2.79l-5.19,25.14c-.27,1.31-1.5,2.14-2.73,1.86h0c-1.23-.29-2.02-1.59-1.75-2.9l5.19-25.14c.27-1.31,1.5-2.14,2.73-1.86,1.23,.29,2.02,1.59,1.75,2.9Zm5.68,28.37c-.33,1.29-1.59,2.06-2.81,1.72-1.22-.35-1.95-1.69-1.62-2.98l6.31-24.85c.33-1.29,1.59-2.06,2.81-1.72,1.22,.35,1.95,1.69,1.62,2.98l-6.31,24.85Z"/></g></g></g></svg>