<?xml version="1.0" encoding="UTF-8"?><svg xmlns="http://www.w3.org/2000/svg" viewBox="0 0 173.86 196.09"><defs><style>.d{fill:#1d1d1b;}</style></defs><g id="a"/><g id="b"><g id="c"><g><path class="d" d="M144.2,43.19l-19.63,20.2c-2.11,2.17-2.06,5.68,.11,7.8l20.2,19.63c2.17,2.11,5.68,2.06,7.8-.11l19.63-20.2c2.11-2.17,2.06-5.68-.11-7.8l-20.2-19.63c-2.17-2.11-5.68-2.06-7.8,.11Zm15.78,22.11c2.7,2.62,2.67,7.05-.05,9.86l-7.31,7.52c-2.72,2.8-7.16,2.95-9.85,.33l-7.24-7.04c-2.7-2.62-2.67-7.05,.05-9.86l7.31-7.52c2.72-2.8,7.16-2.95,9.85-.33l7.24,7.04Z"/><path class="d" d="M10.56,112.78L.37,139.04c-1.1,2.83,.32,6.04,3.15,7.13l26.26,10.19c2.83,1.1,6.04-.32,7.13-3.15l10.19-26.26c1.1-2.83-.32-6.04-3.15-7.13l-26.26-10.19c-2.83-1.1-6.04,.32-7.13,3.15Zm23.93,3.94c4.37,1.7,6.43,7,4.57,11.79l-4.99,12.86c-1.86,4.79-6.95,7.32-11.33,5.62l-11.74-4.56c-4.37-1.7-6.43-7-4.57-11.79l4.99-12.86c1.86-4.79,6.95-7.32,11.33-5.62l11.74,4.56Z"/><path class="d" d="M129.12,124.34l-12.64,26c-1.23,2.54-.11,5.65,2.5,6.92l26.74,13c2.61,1.27,5.76,.23,6.99-2.31l12.64-26c1.23-2.54,.11-5.65-2.5-6.92l-26.74-13c-2.61-1.27-5.76-.23-6.99,2.31Zm15.58,19.07c3.89,1.89,5.97,5.72,4.61,8.5l-3.64,7.48c-1.35,2.79-5.65,3.52-9.54,1.63l-10.45-5.08c-3.89-1.89-5.97-5.72-4.61-8.5l3.64-7.48c1.35-2.79,5.65-3.52,9.54-1.63l10.45,5.08Z"/><path class="d" d="M24.45,48.04L4.98,68.39c-2.1,2.19-2.02,5.7,.17,7.8l6.39,6.12c-2.42-2.32-2.51-6.2-.19-8.62l4.85-5.07c2.46-2.57,6.59-2.67,9.16-.2l11.03,10.56c2.57,2.46,2.67,6.59,.2,9.16l-4.85,5.07c-2.32,2.42-6.2,2.51-8.62,.19l2.37,2.27c2.19,2.1,5.7,2.02,7.8-.17l19.47-20.35c2.1-2.19,2.02-5.7-.17-7.8l-20.35-19.47c-2.19-2.1-5.7-2.02-7.8,.17Z"/><path class="d" d="M71.63,146.85l-19.97,19.85c-2.15,2.14-2.16,5.65-.02,7.8l19.85,19.97c2.14,2.15,5.65,2.16,7.8,.02l19.97-19.85c2.15-2.14,2.16-5.65,.02-7.8l-19.85-19.97c-2.14-2.15-5.65-2.16-7.8-.02Zm21.01,15.42c2.33,2.35,2.32,6.17-.03,8.51l-5.37,5.33c-2.35,2.33-6.17,2.32-8.51-.03l-5.33-5.37c-2.33-2.35-2.32-6.17,.03-8.51l5.37-5.33c2.35-2.33,6.17-2.32,8.51,.03l5.33,5.37Z"/><path class="d" d="M89.67,3.4l-10.79,26.01c-1.16,2.8,.18,6.04,2.98,7.21l26.01,10.79c2.8,1.16,6.04-.18,7.21-2.98l10.79-26.01c1.16-2.8-.18-6.04-2.98-7.21L96.87,.42c-2.8-1.16-6.04,.18-7.21,2.98Zm23.07,5.21c4.3,1.78,6.84,5.58,5.66,8.45l-3.19,7.69c-1.19,2.86-5.68,3.75-9.97,1.96l-11.55-4.79c-4.3-1.78-6.84-5.58-5.66-8.45l3.19-7.69c1.19-2.86,5.68-3.75,9.97-1.96l11.55,4.79Z"/><g><path class="d" d="M53.73,97.05c-.71,.74-.81,1.61-.8,2.06,0,.2,.03,.47,.12,.77,.11,.4,.34,.85,.76,1.26l35.95,34.63c1.13,1.08,3,1.05,4.09-.08l34.63-35.95c.71-.74,.81-1.61,.8-2.06,0-.45-.13-1.31-.87-2.02l-35.95-34.64c-.74-.71-1.61-.8-2.06-.8s-1.31,.13-2.02,.87l-34.63,35.95Zm30.28-14.13h0l11.23,10.82c.86,.83,1.47,1.85,1.8,2.97,.16,.57,.25,1.16,.26,1.76,.03,1.8-.64,3.51-1.88,4.8l-10.82,11.23c-1.54,1.59-3.72,2.34-5.98,1.97-1.43-.23-2.72-.99-3.77-1.99l-11.03-10.62c-1.3-1.25-2.03-2.93-2.06-4.74-.03-1.8,.64-3.51,1.89-4.81l10.81-11.23c2.58-2.68,6.86-2.76,9.54-.18Z"/><rect class="d" x="72.96" y="92.23" width="13.17" height="13.16" rx=".38" ry=".38" transform="translate(-46.81 87.57) rotate(-46.08)"/><path class="d" d="M82.25,48.08l-42.01,43.61c-4.13,4.29-4,11.17,.29,15.3l43.88,42.27c4.28,4.13,11.17,4,15.3-.29l42.27-43.88c4.13-4.29,4-11.17-.29-15.3l-43.61-42.01c-4.44-4.27-11.56-4.14-15.83,.3Zm7.92,.2c3.97-.07,7.72,1.4,10.57,4.14l35.95,34.63c1.89,1.82,3.24,4.07,3.95,6.54,.36,1.24,.56,2.54,.58,3.87,.07,3.97-1.4,7.72-4.14,10.57l-34.63,35.95c-5.68,5.89-15.08,6.07-20.97,.39l-35.95-34.63c-2.85-2.74-4.45-6.43-4.53-10.41-.07-3.97,1.4-7.72,4.14-10.57l34.63-35.95c2.74-2.85,6.44-4.46,10.41-4.53Z"/></g></g></g></g></svg>