<?xml version="1.0" encoding="UTF-8"?><svg xmlns="http://www.w3.org/2000/svg" xmlns:xlink="http://www.w3.org/1999/xlink" viewBox="0 0 461.99 461.99"><defs><style>.g{fill:url(#e);}.h{fill:url(#d);}.i{fill:url(#f);}.j{fill:#fff;}.k{fill:#312783;}.k,.l{stroke:#312783;}.k,.l,.m{stroke-miterlimit:10;}.l,.m{fill:none;}.m{stroke:#fff;}</style><radialGradient id="d" cx="233.87" cy="196.31" fx="233.87" fy="196.31" r="248.7" gradientTransform="matrix(1, 0, 0, 1, 0, 0)" gradientUnits="userSpaceOnUse"><stop offset=".12" stop-color="#28205b"/><stop offset=".26" stop-color="#29225f"/><stop offset=".4" stop-color="#2c296b"/><stop offset=".54" stop-color="#31347f"/><stop offset=".65" stop-color="#364093"/><stop offset=".69" stop-color="#374194"/><stop offset=".7" stop-color="#3e4897"/><stop offset=".71" stop-color="#4a539e"/><stop offset=".72" stop-color="#5b63a7"/><stop offset=".73" stop-color="#7178b2"/><stop offset=".73" stop-color="#8c92c1"/><stop offset=".74" stop-color="#adb1d2"/><stop offset=".75" stop-color="#d1d4e6"/><stop offset=".75" stop-color="#fafbfc"/><stop offset=".75" stop-color="#fff"/><stop offset=".75" stop-color="#eaeaef"/><stop offset=".75" stop-color="#c0c0d0"/><stop offset=".75" stop-color="#9a9ab3"/><stop offset=".76" stop-color="#7a7a9a"/><stop offset=".76" stop-color="#5e5e86"/><stop offset=".76" stop-color="#484875"/><stop offset=".76" stop-color="#373768"/><stop offset=".76" stop-color="#2b2b5f"/><stop offset=".77" stop-color="#24245a"/><stop offset=".77" stop-color="#232359"/><stop offset="1" stop-color="#1b1a39"/></radialGradient><radialGradient id="e" cx="174.62" cy="247.44" fx="143.61" fy="247.44" r="31.12" gradientTransform="translate(0 -107.9) scale(1 1.44)" gradientUnits="userSpaceOnUse"><stop offset=".18" stop-color="#28205b"/><stop offset=".23" stop-color="#29225f"/><stop offset=".28" stop-color="#2c296b"/><stop offset=".34" stop-color="#31347f"/><stop offset=".38" stop-color="#364093"/><stop offset=".53" stop-color="#353f91"/><stop offset=".58" stop-color="#333b8a"/><stop offset=".62" stop-color="#2f357e"/><stop offset=".65" stop-color="#292d6d"/><stop offset=".67" stop-color="#232359"/><stop offset=".75" stop-color="#fff"/><stop offset=".76" stop-color="#e1e1e5"/><stop offset=".77" stop-color="#b8b7c1"/><stop offset=".78" stop-color="#9291a0"/><stop offset=".8" stop-color="#717184"/><stop offset=".81" stop-color="#56556c"/><stop offset=".83" stop-color="#403f59"/><stop offset=".85" stop-color="#2f2e4a"/><stop offset=".87" stop-color="#232240"/><stop offset=".91" stop-color="#1c1b3a"/><stop offset="1" stop-color="#1b1a39"/></radialGradient><radialGradient id="f" cx="114.92" cy="265.66" fx="114.92" fy="265.66" r="17.35" gradientTransform="translate(0 -86.95) scale(1 1.33)" xlink:href="#e"/></defs><g id="a"/><g id="b"><g id="c"><g><circle class="h" cx="230.99" cy="230.99" r="230.99"/><path class="j" d="M286.26,379.52c17.52-10.73,66.5-74.68,73.33-122.92,8.88-62.72,19.51-146.31-20.87-201.25-36.16-49.2-101.39-43.82-146.86-11.32-32.86,23.49-80.86,84.47-83.03,177.65,5.8-27.37,30.97-50.98,47.55-60.72,13.39-7.87,52.34-33.45,112.5-21.65,73.45,14.4,88.21,102.33,73.83,147.67-15.65,49.36-38.72,54.84-55.38,65.56l-1.08,26.98Z"/><g><path class="m" d="M306.22,174.84c7.87,2.33,15.42,4.82,22.62,7.44"/><path class="m" d="M167.01,154.8c11.34-.06,23.22,.35,35.5,1.27"/><path class="m" d="M219.38,137.45c7.39,.81,14.9,1.79,22.49,2.96,21.76,3.35,42.42,7.92,61.34,13.38"/><path class="m" d="M367.98,199.68c29.47,16.16,46.31,34.57,43.69,51.61-5.36,34.86-90.07,50.75-189.21,35.51-99.14-15.24-175.17-55.86-169.81-90.71,2.83-18.4,27.77-31.52,65.28-37.56"/><path class="m" d="M369.39,180.28c28.61,15.97,44.86,34.07,42.29,50.84-5.36,34.86-90.07,50.75-189.21,35.51-99.14-15.24-175.17-55.86-169.81-90.71,2.98-19.39,30.51-32.91,71.41-38.47"/><path class="m" d="M369.38,151.62c28.61,15.97,44.87,34.07,42.29,50.84-5.36,34.86-90.07,50.75-189.21,35.51-99.14-15.24-175.17-55.86-169.81-90.71,3.26-21.18,35.83-35.37,83.13-39.81"/></g><g><path class="j" d="M286.26,402.77c-11.61,5.86-28.75,15.15-48.91,19.91-21.61,5.1-42.43,6.92-59.26,8.12,0-4.71-.02-9.42-.03-14.13,15.55-.78,34.74,.14,55.47-4.75,19.55-4.61,35.32-11.84,49.04-17.71l3.68,8.55Z"/><path class="j" d="M302.56,419.98s-38.17,14.13-61.16,19.56c-24.65,5.82-44.11,8.76-63.31,10.14-.01-5.37-.02-10.74-.03-16.12,17.73-.88,36.63-.55,60.27-6.13,22.3-5.26,37.2-9.82,52.85-16.51,3.44,4.38,11.37,9.06,11.37,9.06Z"/><path class="j" d="M147.43,179.58c-9.81,9.62-17.18,15.48-22.69,25.61-4.56,8.38-3.44,15.25-5.92,24.94-.99,3.86-5.48,9.52-7.22,13.3-1.65,3.61,5.29,2.88,1.19,10.22-2.49,4.45-.23,7.86,3.32,17.93,1.11,3.16,.73,6.41-.44,9.96-1.11,3.36-3.19,5.21-3.77,6.44-6.46,13.71-.98,31.61,.89,37.73,2.06,6.72,4.62,11.88,5.77,14.2,3.44,6.96,5.99,10.14,11.32,20.86,1.7,3.42,1.55,3.32,2.22,4.44,3.03,5.07,7.05,12.86,13.42,11.72,3.82-.68,18.6-5.3,18.6-5.3l-15.72,6.61s29.69,6.68,35.63,22.7c.35,.95-8.53-7.94-8.43-7.24,.16,1.25-.93,15.39,2.47,20.3,17.76-.31,40.42-2.28,60.97-9.69,17.82-6.43,31.8-15.91,41.07-20.31-2.47-4.72-4.75-10.76-6.17-22.57-.86-7.22-.17-13.11,3.01-17.77,11.36-3.39,39.23-30.73,42.2-35.86,6.51-11.23,28.87-104.44-17.95-136.89-63.48-43.99-141-.21-153.76,8.68Z"/></g><g><g><path class="l" d="M328.84,182.28c14.65,5.33,27.83,11.2,39.14,17.4"/><path class="l" d="M117.93,158.53c14.64-2.36,31.19-3.64,49.08-3.73"/><path class="l" d="M303.2,153.78c25.8,7.45,48.38,16.56,66.18,26.5"/><path class="l" d="M124.06,137.44c27.01-3.67,59.86-3.87,95.32,0"/><path class="l" d="M135.78,107.45c30.53-2.87,67.2-1.68,106.08,4.3,51.44,7.91,96.66,22.65,127.51,39.87"/></g><path class="l" d="M202.5,156.07c12.75,.95,25.92,2.45,39.36,4.51,22.93,3.53,44.62,8.41,64.36,14.26"/></g><g><polygon class="g" points="195.39 218.28 191.19 239.53 207.29 254.72 184.67 257.65 174.26 276.92 164.47 257.48 141.95 254.2 158.52 239.26 155 217.96 175.03 228.16 195.39 218.28"/><polygon class="i" points="125.77 274.68 123.45 276.5 115.2 288.14 112.61 272.69 100.95 266.26 111.92 258.79 112.97 243.18 122.34 254.02 134.64 250.8 129.46 264.96 129.43 267.2 125.77 274.68"/><line class="k" x1="122.6" y1="233.81" x2="122.6" y2="306.07"/><line class="k" x1="128.6" y1="229.69" x2="128.6" y2="299.5"/><line class="k" x1="135.64" y1="225.71" x2="135.64" y2="296.12"/><line class="k" x1="141.92" y1="290.09" x2="141.92" y2="222.69"/><line class="k" x1="148.43" y1="219.96" x2="148.43" y2="286.68"/><line class="k" x1="154.76" y1="283.81" x2="154.76" y2="217.61"/><line class="k" x1="160.72" y1="215.63" x2="160.72" y2="281.42"/><line class="k" x1="167.1" y1="279.16" x2="167.1" y2="213.72"/><line class="k" x1="174.62" y1="211.72" x2="174.62" y2="276.78"/><line class="k" x1="181.33" y1="210.14" x2="181.33" y2="274.91"/><line class="k" x1="117.1" y1="238.52" x2="117.1" y2="317.77"/><line class="k" x1="111.75" y1="244.25" x2="111.75" y2="323.94"/><line class="k" x1="188.16" y1="208.7" x2="188.16" y2="273.21"/><line class="k" x1="196.91" y1="271.29" x2="196.91" y2="207.09"/><line class="k" x1="216.23" y1="204.34" x2="216.23" y2="267.97"/><line class="k" x1="249.51" y1="264.66" x2="249.51" y2="201.82"/><line class="k" x1="297.6" y1="202.52" x2="297.6" y2="264.31"/></g></g></g></g></svg>