<?xml version="1.0" encoding="UTF-8"?><svg xmlns="http://www.w3.org/2000/svg" viewBox="0 0 202.08 448.23"><defs><style>.e{fill:#13100d;}</style></defs><g id="a"/><g id="b"><g id="c"><g id="d"><path class="e" d="M186.13,281.57c-5.66,51.63-1.79,106.65-4.55,159.4-.05,2.58,1.12,6.79-2.72,6.93-3.9,.14-3.04-4.17-3.13-6.7-2.92-52.53-1.23-107.53-6.71-158.85-7.49,52.8,2.56,114.34-7.55,165.2-6.39-2.79-1.9-23.58-3.72-30.76-2.83-44.38-.26-91.32-5.72-134.46-4.8,52.76-1.67,108.06-5.07,161.59,.5,4.96-5.72,4.76-5.35-.09-3.36-53.3,.28-110.38-7.26-161.82-3.06,53.57-2.3,107.14-5.33,160.73,1.05,6.65-6.4,6.3-5.44-.31-2.93-52.86,1.48-109.35-6.15-160.42-3.94,9.34,.51,199.01-10.72,158.29-2.95-52.42,1.47-107.44-6.3-158.48-3.59,53.58-2.83,107.2-5.39,160.86,1.15,6.48-6.42,6.8-5.42,.05-2.83-53.08,.66-109.1-6.15-160.7-7.09,223.13-8.24,217.59-16.14,.34-4.72,51.8-2.69,106.64-5.33,159.45-.16,2.21,.04,5.96-3.13,5.75-8.19-42.77-3.04-92.45-6.37-137.46-.37-3.51,.01-36.26-3.42-24.67-1.92,52.16-2.35,104.37-4.09,156.54,1.31,6.55-6.6,7.62-5.4,.36-3.35-52.66,.2-109.34-7.04-160.01-4.78,207.13-9.59,225.8-14.91,3.4,.5-5.48-3.67-2.88-2.51,1.11-4.23,52.51,4.36,110.41-2.29,160.28C.74,380.85,2.87,305.01,.72,235.52c-1.42-21.87-3.3-50.6,21.86-59.36,44.83-12.12,62.08-58.12,40.95-98.46-2.3-16.1-12.84-42.07,3.53-52.48,2.91-1.33,4.19-3.2,4.59-6.4,.26-11.04,9.51-9.12,16.33-13.37,6.05-6.84,11.7-7.2,18.85-1.25,25.71,.22,16.06,11.73,25.92,28.74,18.55,29.21-16.36,59.72-4.74,91.14,5.07,24.92,22.51,41.73,46.15,50.02,20.26,7.67,27.92,18.08,27.82,39.85,.73,76.31-3.29,152.54-7.38,228.72,.6,3.38-3.24,8.49-5.42,3.47-3.48-54.29,3.01-111.24-3.06-164.56Zm-88.75-77.93c4.1-23.61-21.88-2.75-23.05,8.42-1.48,6.23,7.81,2.68,11.33,3.55,13.84-.16,11.5,1.58,11.72-11.97Zm8.27,.06c1.36,3.92-2.67,13.33,4.86,12.61,4.89-1.46,18.98,3.72,16.64-5.08-1.82-10.71-25.64-29.81-21.5-7.53Zm-22.16,20.73c-18.72-4.06-4.44,16.38,4.17,19.75,9.37,5.94,9.05,.79,9.12-7.75-.06-13.65,1.26-11.8-13.28-12Zm22.37,11.36c-3.62,20.08,15.24,5.21,20.05-3.58,6.02-8.97-2.41-7.25-8.97-7.52-12.76-.05-11.05-1.24-11.08,11.1Z"/></g></g></g></svg>