<?xml version="1.0" encoding="UTF-8"?><svg xmlns="http://www.w3.org/2000/svg" viewBox="0 0 176.76 225.42"><defs><style>.d{fill:#13100d;}</style></defs><g id="a"/><g id="b"><g id="c"><path class="d" d="M176.2,209.8c-5.29,5.23-10.16,10.05-15.47,15.29-27.63-27.94-42.67-61.78-46.05-101.14H62.13c-3.35,39.18-18.34,72.94-46.32,101.47-2.66-2.56-5.12-4.98-7.63-7.34-2.57-2.41-5.19-4.77-8.19-7.52,11.73-12.11,21.15-25.06,27.91-39.82,6.75-14.74,10.98-30.12,12.21-46.93H14.84v-21.85h25.3C37.03,68.34,23.7,40.2,.89,16.63,6.01,11.69,11.05,6.83,16.48,1.58c27.04,27.35,42.09,61,45.6,100.12h52.64c3.46-38.96,18.49-72.55,47.1-101.71,2.33,2.84,4.4,5.67,6.79,8.19,2.42,2.55,5.16,4.79,8.14,7.5-11.66,12.18-21.1,25.1-27.87,39.84-6.68,14.57-10.86,29.78-12.15,46.4h25.29v21.52h-25.3c1.01,16.81,5.29,32.07,11.95,46.78,6.73,14.84,16,27.93,27.51,39.58Z"/></g></g></svg>