<?xml version="1.0" encoding="UTF-8"?><svg xmlns="http://www.w3.org/2000/svg" viewBox="0 0 120.22 203.45"><defs><style>.d{fill:#1d1d1b;}</style></defs><g id="a"/><g id="b"><g id="c"><g><g><path class="d" d="M22.53,67.85l37.27,7.8,36.88-7.8s10.86,4.11-8.52,24.84c-18.64,.11-24.3,3.4-28.36,8.58-5.34-5.35-8.39-9.34-28.17-9.18-19.94-20.98-9.09-24.24-9.09-24.24Z"/><path class="d" d="M59.84,102.02l-1.09-1.09c-4.89-4.93-8.42-8.51-27.13-8.34h-.22l-.15-.16c-11.43-12.03-12.82-18.39-11.96-21.61,.72-2.72,2.99-3.43,3.09-3.46l.12-.04,.12,.03,37.16,7.78,36.92-7.81,.14,.05c.1,.04,2.46,.96,3.16,3.99,.79,3.42-.55,9.95-11.5,21.66l-.15,.16h-.22c-17.98,.11-23.87,3.16-27.97,8.39l-.35,.44Zm-27.03-10.44c18.1,0,21.7,3.64,26.66,8.64l.29,.29c4.25-5.18,10.46-8.2,28.18-8.33,10.48-11.25,11.83-17.39,11.11-20.56-.49-2.17-1.98-3.04-2.42-3.26l-36.83,7.79-37.23-7.79c-.41,.16-1.81,.85-2.31,2.74-.77,2.96,.62,8.91,11.58,20.48,.33,0,.65,0,.97,0Z"/></g><g><path class="d" d="M31.43,59.75s20.63,13.05,28.12,13.16c7.49,.11,28.42-13.16,28.42-13.16-2.14-.72-3.79-2.3-5.79-4.58-.09,4.3-3.34,3.89-3.34,3.89l-5.56-1.49-4.16,1.7-4.76-1.72-4.66,6.48-4.7-6.46-4.34,2.31-4.86-2.31-4.5,2.36s-3.98,.33-5.13-4.6c-.81,2.33-2.35,4.04-4.75,4.4Z"/><path class="d" d="M59.64,73.41s-.07,0-.1,0c-7.54-.12-27.54-12.7-28.38-13.24l-1.13-.72,1.32-.2c2.57-.39,3.78-2.43,4.35-4.07l.57-1.64,.39,1.69c.95,4.08,3.95,4.22,4.51,4.22l4.62-2.43,4.86,2.31,4.5-2.4,4.55,6.25,4.47-6.23,4.93,1.78,4.14-1.69,5.73,1.53s.02,0,.06,0c.23,0,1-.03,1.63-.58,.65-.56,.99-1.52,1.02-2.83l.03-1.29,.85,.97c2.01,2.3,3.57,3.76,5.57,4.43l.99,.33-.88,.56c-.86,.54-20.96,13.24-28.59,13.24Zm-26.96-13.47c4.2,2.58,20.53,12.37,26.87,12.47,6.44,.12,23.36-10.13,27.31-12.57-1.52-.72-2.82-1.87-4.3-3.49-.19,1.04-.61,1.85-1.26,2.41-1.11,.96-2.47,.81-2.53,.8l-5.47-1.46-4.19,1.71-4.58-1.66-4.84,6.74-4.85-6.66-4.18,2.23-4.86-2.31-4.47,2.3s-3.65,.25-5.24-3.66c-.8,1.56-1.96,2.62-3.41,3.15Z"/></g><g><path class="d" d="M9.92,83.84l6.44-4.83s20.09,17.8-6.14,8.39l-6.62,2.75s-13.37-10.68,15.94-58.42l-1.04-9.21c2.37,2.35,4.29,0,4.29,0l-1.87-3.36,2.55-1.43-1.73-3.05,2.43-1.36-2.37-4.82h1.27s2.99-.41,5.17-5.83c1.15-2.87,5.45,2.29,5.17,1.95-8.02-9.54-6.32,8.27-6.32,8.27l-4.54,20.01c-3.22,3.58-23.63,44.99-12.62,50.94Z"/><path class="d" d="M3.51,90.72l-.23-.18c-.56-.45-13.35-11.48,15.73-58.92l-1.18-10.46,1.01,1c.63,.63,1.27,.93,1.9,.9,.63-.03,1.14-.39,1.42-.63l-1.93-3.46,2.55-1.43-1.73-3.05,2.45-1.37-2.52-5.11h2.08s2-.37,3.86-3.73c.26-1.01,.64-1.87,1.2-2.4,.3-.36,.66-.5,.95-.55,.16-.03,.32-.03,.48-.01,1.17,.02,2.56,1.01,4.23,2.99l.32,.38-.74,.66-.33-.38c-.9-1.04-2.47-2.48-3.47-2.65-.16,0-.3,.02-.43,.07-.09,.04-.18,.09-.26,.15-.06,.08-.12,.18-.18,.32-.27,.68-.56,1.28-.85,1.82-.52,2.29-.49,5.75-.26,8.16v.16l-4.58,20.14-.09,.1c-2.78,3.08-17.65,33.2-15.51,45.62,.36,2.09,1.2,3.56,2.48,4.38l6.5-4.88,.31,.27c1.51,1.33,8.93,8.13,7.27,10.93-.69,1.16-2.86,2.25-13.74-1.63l-6.71,2.79Zm6.69-3.86l.18,.07c10.41,3.73,12.36,2.73,12.72,2.13,.89-1.49-3.33-6.29-6.77-9.4l-6.36,4.78-.28-.15c-1.73-.93-2.82-2.7-3.27-5.25-2.22-12.86,12.55-42.64,15.66-46.35l4.5-19.81c-.07-.72-.29-3.54-.04-6.22-1.72,2.1-3.31,2.34-3.41,2.36h-.54l2.23,4.52-2.4,1.34,1.73,3.05-2.55,1.44,1.8,3.22-.22,.26s-.96,1.15-2.37,1.23c-.57,.03-1.14-.11-1.68-.42l.93,8.21-.09,.15C-6.62,75.27,2.2,87.88,3.71,89.56l6.49-2.69Z"/></g><g><path class="d" d="M110.31,83.84l-6.44-4.83s-20.09,17.8,6.14,8.39l6.62,2.75s13.37-10.68-15.94-58.42l1.04-9.21c-2.37,2.35-4.29,0-4.29,0l1.87-3.36-2.55-1.43,1.73-3.05-2.43-1.36,2.37-4.82h-1.27s-5.28-.93-5.3-6.77c-.02-5.84,0,10.96,0,10.96l5.82,20.21c3.22,3.58,23.63,44.99,12.62,50.94Z"/><path class="d" d="M116.71,90.72l-6.71-2.79c-10.87,3.88-13.05,2.79-13.74,1.63-1.66-2.8,5.77-9.6,7.27-10.93l.31-.27,6.5,4.88c1.29-.82,2.12-2.29,2.48-4.38,2.15-12.41-12.73-42.53-15.51-45.62l-.08-.09-5.88-20.46V6.6c0-2.13,0-3.57,0-4.54,0-.1,0-.21,0-.32,0-.79,0-1.16,0-1.22h.09c.07-.54,.2-.53,.43-.52,.32,0,.43,.02,.46,.52h.02s0,.13,0,.31c0,.23,0,.53,0,.9,.02,5.37,4.69,6.25,4.89,6.28h1.99l-2.52,5.1,2.45,1.37-1.73,3.05,2.55,1.43-1.93,3.46c.28,.25,.79,.6,1.42,.63,.62,.03,1.27-.27,1.9-.9l1.01-1-1.18,10.46c29.08,47.44,16.29,58.47,15.73,58.92l-.23,.18Zm-12.82-11.06c-3.44,3.11-7.66,7.91-6.77,9.4,.36,.6,2.31,1.6,12.72-2.13l.18-.07,6.49,2.69c1.5-1.66,10.33-14.27-16.25-57.57l-.09-.15,.93-8.21c-.54,.31-1.11,.45-1.68,.42-1.41-.07-2.33-1.18-2.37-1.23l-.22-.26,1.8-3.22-2.55-1.44,1.73-3.05-2.4-1.34,2.23-4.52h-.47c-.11-.01-3.18-.59-4.81-3.36,0,2.36,0,5.06,0,6.97l5.77,20.04c3.09,3.66,17.9,33.49,15.67,46.37-.44,2.55-1.54,4.32-3.27,5.25l-.28,.15-6.36-4.78Z"/></g><path class="d" d="M65.93,203.45c1.47-1.33,44.28-39.88,48.57-55.23,.99-3.57-13.33-5.73-13.96-5.83l-.02,.02c-.86,0-1.56-.7-1.56-1.56s.7-1.55,1.56-1.55,1.56,.69,1.56,1.55l15.3,5.19c13.92,10.45-49.65,56.13-51.45,57.41Z"/><path class="d" d="M53.99,203.45c-1.47-1.33-44.28-39.88-48.57-55.23-.99-3.57,13.33-5.73,13.96-5.83l.02,.02c.86,0,1.56-.7,1.56-1.56s-.7-1.55-1.56-1.55-1.56,.69-1.56,1.55l-15.3,5.19c-13.92,10.45,49.65,56.13,51.45,57.41Z"/><g><polygon class="d" points="49.47 131.7 44.21 127.96 38.94 131.71 44.01 135.07 49.47 131.7"/><path class="d" d="M59.02,172.8c.11-2.26-.28-4.06-.71-5.31-.43,1.25-.82,3.04-.71,5.31h0c0,.7,.56,1.25,1.25,1.25,.23,0,.44-.08,.62-.18-.28-.27-.45-.65-.45-1.06Z"/><path class="d" d="M26.82,96.03c-.89,0-1.03,.14-1.04,.16,.1,.47,2.41,1.51,5.97,2.53,.46-.5,.83-1.14,1.08-1.9-3.31-.63-5.07-.79-6.01-.79Z"/><path class="d" d="M60.37,172.79c0,.42-.17,.8-.45,1.07,.19,.11,.39,.18,.62,.18,.68,0,1.24-.55,1.25-1.23h0c.11-2.28-.28-4.07-.71-5.32-.43,1.25-.82,3.04-.71,5.3Z"/><path class="d" d="M93.44,96.15h0s-.65-.55-7.04,.67c.26,.76,.61,1.39,1.07,1.89,3.56-1.03,5.87-2.08,5.97-2.56Z"/><path class="d" d="M88.07,93.96c-18.36,5.81-37.33,5.69-56.36-.37-2.11-.67-4.26-.16-6.53,.38-2.38,.56-4.83,1.14-7.27,.3l5,47.33c0,17.55,11.51,36.39,36.79,36.39,25.27,0,36.78-18.83,36.78-36.33l5-47.38c-2.45,.87-4.79,.38-7.07-.1-2.17-.46-4.22-.89-6.34-.21Zm-49.33,63.21h-.25l.16-24.12h.25l-.16,24.12Zm-.24-25.46l5.71-4.06,5.71,4.06-5.92,3.65-5.5-3.66Zm2.91,22.55h-.25l.13-19.46h.25l-.13,19.46Zm2.67-2.66h-.25l.1-14.92h.25l-.1,14.92Zm.62-.21l-.1-14.92h.25l.1,14.92h-.25Zm2.67,2.67l-.13-19.46h.25l.13,19.46h-.25Zm2.67,2.91l-.16-24.12h.25l.16,24.11h-.25Zm6.59,13.92h-.5c-.31-4.42-.69-6.32-2.2-6.64l-.2-.04v-62.49c-7.76,.64-16.19-.82-21.83-2.44-2.02,1.94-5.2,1.48-7.21,.9-3-.86-6.17-2.79-5.94-3.61l.48,.13c.11,.52,4.3,3.26,8.23,3.46,1.62,.08,2.91-.27,3.86-1.06-3.35-1-5.61-2.05-5.97-2.68-.11-.18-.1-.38,0-.53,.16-.22,.65-.91,7.83,.49l.27,.05-.08,.26c-.27,.9-.65,1.61-1.11,2.17,5.6,1.55,13.97,3.01,21.69,2.33l.27-.02v62.63c.92,.28,1.45,1.06,1.79,2.29-.18-1.19-.46-1.71-.68-1.95-.14-.15-.24-.16-.24-.16l-.28,.04,.02-.29v-60.65h.5v60.44c.09,.03,.19,.09,.3,.19,.59,.54,1.25,2.23,1,7.15Zm5.42-5.48l-.02,.03s-.42,.6-.83,1.69c.48,1.28,.95,3.19,.83,5.68,0,.82-.67,1.49-1.5,1.49-.31,0-.6-.09-.84-.25-.24,.16-.53,.25-.84,.25-.82,0-1.49-.67-1.5-1.49-.12-2.48,.36-4.39,.83-5.68-.41-1.09-.82-1.68-.83-1.69l-.02-.03v-60.69h.25v60.61c.09,.13,.4,.64,.73,1.46,.33-.81,.64-1.31,.73-1.44v-62.26h.25v62.34l-.02,.03s-.41,.6-.82,1.68c.48,1.29,.95,3.2,.83,5.67,0,.36,.17,.68,.42,.91,.26-.23,.42-.55,.42-.91-.12-2.47,.35-4.38,.83-5.67-.41-1.08-.81-1.66-.82-1.68l-.02-.03v-62.34h.25v62.26c.09,.13,.39,.63,.73,1.44,.33-.82,.65-1.33,.73-1.46v-60.61h.25v60.69Zm7.09-7.92h-.25l.16-24.12h.25l-.16,24.12Zm2.67-2.91h-.25l.13-19.46h.25l-.13,19.46Zm2.67-2.66h-.25l.1-14.92h.25l-.1,14.92Zm.62-.21l-.1-14.92h.25l.1,14.92h-.25Zm2.67,2.67l-.13-19.46h.25l.13,19.46h-.25Zm2.67,2.91l-.16-24.12h.25l.16,24.11h-.25Zm-5.58-21.28l-5.5-3.66,5.71-4.06,5.71,4.06-5.92,3.65Zm25.1-39.34l.48-.1c.23,.83-2.93,2.75-5.94,3.61-2.01,.58-5.19,1.04-7.21-.9-5.65,1.62-14.06,3.08-21.83,2.44v62.49l-.2,.04c-1.51,.32-1.89,2.22-2.2,6.64h-.5c-.25-4.93,.4-6.61,1-7.16,.11-.1,.21-.16,.3-.19v-60.44h.5v60.93l-.28-.04s-.09,.01-.23,.16c-.22,.23-.5,.76-.68,1.94,.34-1.23,.87-2.01,1.79-2.29v-62.63l.27,.02c7.72,.68,16.08-.77,21.68-2.33-.46-.56-.84-1.27-1.1-2.16l-.08-.26,.27-.05c7.18-1.4,7.67-.71,7.83-.49,.11,.15,.11,.35,0,.53-.36,.63-2.62,1.68-5.97,2.68,.95,.79,2.24,1.14,3.86,1.06,3.94-.21,8.13-2.94,8.23-3.5Z"/><polygon class="d" points="69.81 132.33 74.87 135.7 80.33 132.33 75.07 128.59 69.81 132.33"/></g></g></g></g></svg>