<svg width="225" height="256" viewBox="0 0 225 256" fill="none" xmlns="http://www.w3.org/2000/svg">
<rect x="31.0098" y="193.726" width="79" height="79" transform="rotate(-39 31.0098 193.726)" fill="white"/>
<path d="M33.803 163.757L33.0273 170.839L29.8707 166.941L33.803 163.757ZM28.3769 174.605L25.2202 170.707L29.1526 167.523L32.3092 171.421L28.3769 174.605ZM23.7264 178.371L20.5698 174.473L24.5021 171.289L27.6588 175.187L23.7264 178.371ZM19.1102 182.109L15.9535 178.211L19.8859 175.027L23.0426 178.925L19.1102 182.109ZM29.2892 166.223L26.1048 162.291L30.0372 159.106L33.2215 163.039L29.2892 166.223ZM15.372 177.493L12.1877 173.561L16.12 170.376L19.3044 174.309L15.372 177.493ZM25.5233 161.573L22.3389 157.64L26.2713 154.456L29.4557 158.388L25.5233 161.573ZM11.6062 172.843L8.42182 168.91L12.3542 165.726L15.5385 169.658L11.6062 172.843ZM21.7575 156.922L18.6008 153.024L22.5331 149.84L25.6898 153.738L21.7575 156.922ZM7.84032 168.192L4.68365 164.294L8.61601 161.11L11.7727 165.008L7.84032 168.192ZM14.8349 148.374L21.9516 149.122L18.0193 152.306L14.8349 148.374ZM13.3688 156.072L10.1845 152.139L14.1168 148.955L17.3012 152.887L13.3688 156.072ZM8.71841 159.838L5.53405 155.905L9.4664 152.721L12.6508 156.653L8.71841 159.838ZM4.10216 163.576L0.917798 159.643L4.85016 156.459L8.03452 160.391L4.10216 163.576ZM40.1462 165.075L36.9618 161.142L40.8942 157.958L44.0785 161.89L40.1462 165.075ZM36.3803 160.424L33.196 156.492L37.1283 153.307L40.3127 157.24L36.3803 160.424ZM32.6422 155.808L29.4578 151.876L33.3902 148.691L36.5745 152.624L32.6422 155.808ZM28.8763 151.157L25.6919 147.225L29.6243 144.041L32.8087 147.973L28.8763 151.157ZM25.1105 146.507L21.9261 142.575L25.8584 139.39L29.0428 143.323L25.1105 146.507ZM61.7545 141.122L61.0065 148.239L57.8222 144.306L61.7545 141.122ZM56.3561 152.005L53.1717 148.072L57.1041 144.888L60.2885 148.82L56.3561 152.005ZM51.7399 155.743L48.5555 151.811L52.4879 148.626L55.6722 152.558L51.7399 155.743ZM51.0218 156.324L43.9051 155.576L47.8374 152.392L51.0218 156.324ZM57.2407 143.588L54.0563 139.656L57.9887 136.472L61.1731 140.404L57.2407 143.588ZM50.3182 135.04L57.4349 135.788L53.5025 138.972L50.3182 135.04ZM48.8521 142.738L45.6677 138.806L49.6001 135.621L52.7844 139.554L48.8521 142.738ZM44.2358 146.476L41.0515 142.544L44.9838 139.359L48.1682 143.292L44.2358 146.476ZM43.5178 147.058L36.401 146.31L40.3334 143.125L43.5178 147.058ZM35.8195 145.592L32.6352 141.659L36.5675 138.475L39.7519 142.407L35.8195 145.592ZM42.7865 125.739L49.9032 126.487L45.9708 129.671L42.7865 125.739ZM41.3204 133.437L38.136 129.505L42.0684 126.32L45.2527 130.253L41.3204 133.437ZM36.7041 137.175L33.5198 133.243L37.4521 130.059L40.6365 133.991L36.7041 137.175ZM32.0537 140.941L32.8017 133.824L35.9861 137.757L32.0537 140.941ZM71.5841 139.673L68.3997 135.741L72.3321 132.557L75.5165 136.489L71.5841 139.673ZM67.8183 135.023L64.6339 131.091L68.5663 127.906L71.7506 131.838L67.8183 135.023ZM64.0524 130.372L60.868 126.44L64.8004 123.256L67.9848 127.188L64.0524 130.372ZM60.3142 125.756L57.1299 121.824L61.0622 118.639L64.2466 122.572L60.3142 125.756ZM61.1646 117.368L57.9803 113.435L61.9126 110.251L65.097 114.183L61.1646 117.368ZM56.5484 121.106L53.364 117.173L57.2964 113.989L60.4807 117.921L56.5484 121.106ZM51.8979 124.872L48.7136 120.939L52.6459 117.755L55.8303 121.687L51.8979 124.872ZM97.0472 119.054L93.8628 115.121L97.7952 111.937L100.98 115.869L97.0472 119.054ZM83.1301 130.324L79.9457 126.391L83.8781 123.207L87.0624 127.139L83.1301 130.324ZM90.097 110.471L97.2137 111.219L93.2813 114.403L90.097 110.471ZM92.5633 114.985L85.4807 114.209L89.3789 111.052L92.5633 114.985ZM79.3642 125.673L76.1799 121.741L80.1122 118.556L83.2966 122.489L79.3642 125.673ZM90.2635 102.636L89.5155 109.753L86.3311 105.82L90.2635 102.636ZM84.8992 113.491L81.7149 109.559L85.6131 106.402L88.7974 110.334L84.8992 113.491ZM80.2488 117.257L77.0644 113.324L80.9968 110.14L84.1812 114.072L80.2488 117.257ZM75.5984 121.023L72.414 117.09L76.3464 113.906L79.5307 117.838L75.5984 121.023ZM85.7773 105.137L82.593 101.204L86.5253 98.0198L89.7097 101.952L85.7773 105.137ZM71.8602 116.406L68.6758 112.474L72.6082 109.29L75.7926 113.222L71.8602 116.406ZM78.8271 96.5538L85.9438 97.3018L82.0115 100.486L78.8271 96.5538ZM77.3952 104.224L74.2109 100.292L78.109 97.1353L81.2934 101.068L77.3952 104.224ZM72.7448 107.99L69.5604 104.058L73.4928 100.873L76.6771 104.806L72.7448 107.99ZM68.0943 111.756L64.91 107.824L68.8423 104.639L72.0267 108.572L68.0943 111.756ZM104.173 113.227L100.988 109.295L104.921 106.11L108.105 110.043L104.173 113.227ZM100.407 108.577L97.2223 104.644L101.155 101.46L104.339 105.392L100.407 108.577ZM96.6685 103.96L93.4842 100.028L97.4165 96.8437L100.601 100.776L96.6685 103.96ZM92.9027 99.3099L89.7183 95.3776L93.6507 92.1932L96.835 96.1256L92.9027 99.3099ZM89.1368 94.6595L85.9525 90.7271L89.8848 87.5428L93.0692 91.4751L89.1368 94.6595ZM125.651 89.3235L124.937 96.4125L121.752 92.4801L125.651 89.3235ZM120.286 100.178L117.102 96.246L121.034 93.0616L124.219 96.994L120.286 100.178ZM115.636 103.944L112.452 100.012L116.384 96.8275L119.568 100.76L115.636 103.944ZM111.02 107.682L107.835 103.75L111.734 100.593L114.918 104.526L111.02 107.682ZM121.171 91.762L117.987 87.8297L121.885 84.673L125.069 88.6054L121.171 91.762ZM107.254 103.032L104.07 99.0996L107.968 95.9429L111.152 99.8752L107.254 103.032ZM117.405 87.1116L114.221 83.1792L118.119 80.0226L121.303 83.9549L117.405 87.1116ZM112.755 90.8775L109.57 86.9451L113.503 83.7607L116.687 87.6931L112.755 90.8775ZM108.104 94.6433L104.92 90.7109L108.852 87.5266L112.037 91.4589L108.104 94.6433ZM103.488 98.3815L100.304 94.4491L104.202 91.2924L107.386 95.2248L103.488 98.3815ZM113.667 82.4954L110.483 78.563L114.381 75.4063L117.565 79.3387L113.667 82.4954ZM99.7499 93.7652L96.5655 89.8329L100.464 86.6762L103.648 90.6086L99.7499 93.7652ZM106.717 73.9126L113.799 74.6882L109.901 77.8449L106.717 73.9126ZM105.251 81.6108L102.066 77.6784L105.999 74.494L109.183 78.4264L105.251 81.6108ZM100.6 85.3766L97.4159 81.4443L101.348 78.2599L104.533 82.1923L100.6 85.3766ZM95.984 89.1148L92.7996 85.1824L96.6978 82.0258L99.8822 85.9581L95.984 89.1148ZM146.983 72.1054L146.235 79.2221L143.051 75.2898L146.983 72.1054ZM141.619 82.9603L138.434 79.0279L142.333 75.8713L145.517 79.8036L141.619 82.9603ZM136.968 86.7262L133.784 82.7938L137.716 79.6094L140.901 83.5418L136.968 86.7262ZM136.25 87.3076L129.134 86.5597L133.066 83.3753L136.25 87.3076ZM142.469 74.5717L139.285 70.6393L143.217 67.455L146.402 71.3873L142.469 74.5717ZM128.552 85.8416L125.368 81.9092L129.3 78.7248L132.484 82.6572L128.552 85.8416ZM138.703 69.9213L135.547 66.0231L139.479 62.8387L142.636 66.7369L138.703 69.9213ZM124.786 81.1911L121.63 77.293L125.562 74.1086L128.719 78.0068L124.786 81.1911ZM134.965 65.305L131.781 61.3727L135.713 58.1883L138.898 62.1206L134.965 65.305ZM121.048 76.5749L117.864 72.6425L121.796 69.4582L124.98 73.3905L121.048 76.5749ZM131.199 60.6546L128.015 56.7222L131.947 53.5378L135.132 57.4702L131.199 60.6546ZM117.282 71.9244L114.098 67.9921L118.03 64.8077L121.215 68.7401L117.282 71.9244ZM158.139 69.5827L154.954 65.6504L158.887 62.466L162.071 66.3984L158.139 69.5827ZM154.373 64.9323L151.189 60.9999L155.121 57.8156L158.305 61.7479L154.373 64.9323ZM150.607 60.2819L147.423 56.3495L151.355 53.1651L154.539 57.0975L150.607 60.2819ZM146.869 55.6656L143.685 51.7333L147.617 48.5489L150.801 52.4813L146.869 55.6656ZM147.719 47.277L144.535 43.3446L148.467 40.1603L151.652 44.0926L147.719 47.277ZM143.103 51.0152L139.919 47.0828L143.851 43.8984L147.035 47.8308L143.103 51.0152ZM138.453 54.781L135.268 50.8487L139.201 47.6643L142.385 51.5967L138.453 54.781ZM169.623 60.2265L166.438 56.2941L170.371 53.1098L173.555 57.0421L169.623 60.2265ZM165.857 55.5761L162.673 51.6437L166.605 48.4593L169.789 52.3917L165.857 55.5761ZM162.119 50.9598L158.934 47.0275L162.867 43.8431L166.051 47.7755L162.119 50.9598ZM158.353 46.3094L155.169 42.377L159.101 39.1927L162.285 43.125L158.353 46.3094ZM154.587 41.6589L151.403 37.7266L155.335 34.5422L158.519 38.4746L154.587 41.6589ZM191.129 36.3571L190.381 43.4738L187.196 39.5414L191.129 36.3571ZM185.764 47.212L182.58 43.2796L186.512 40.0952L189.697 44.0276L185.764 47.212ZM181.114 50.9778L177.93 47.0454L181.862 43.8611L185.046 47.7934L181.114 50.9778ZM180.396 51.5593L173.279 50.8113L177.211 47.6269L180.396 51.5593ZM186.615 38.8234L183.458 34.9252L187.39 31.7408L190.547 35.639L186.615 38.8234ZM172.698 50.0932L169.541 46.1951L173.473 43.0107L176.63 46.9089L172.698 50.0932ZM182.877 34.2071L179.692 30.2747L183.625 27.0904L186.809 31.0227L182.877 34.2071ZM168.959 45.477L165.775 41.5446L169.707 38.3603L172.892 42.2926L168.959 45.477ZM179.111 29.5567L175.926 25.6243L179.859 22.4399L183.043 26.3723L179.111 29.5567ZM165.194 40.8265L162.009 36.8942L165.942 33.7098L169.126 37.6422L165.194 40.8265ZM172.188 21.0081L179.277 21.7219L175.345 24.9062L172.188 21.0081ZM170.729 28.6444L167.572 24.7462L171.504 21.5619L174.661 25.46L170.729 28.6444ZM166.078 32.4102L162.922 28.5121L166.854 25.3277L170.011 29.2259L166.078 32.4102ZM161.428 36.1761L162.203 29.0936L165.36 32.9917L161.428 36.1761ZM211.921 26.0303L208.737 22.098L212.669 18.9136L215.854 22.846L211.921 26.0303ZM198.004 37.3002L194.82 33.3678L198.752 30.1835L201.937 34.1158L198.004 37.3002ZM208.183 21.4141L204.999 17.4817L208.931 14.2974L212.116 18.2297L208.183 21.4141ZM207.465 21.9956L200.383 21.2199L204.281 18.0632L207.465 21.9956ZM194.266 32.684L191.082 28.7516L195.014 25.5672L198.199 29.4996L194.266 32.684ZM204.417 16.7636L201.233 12.8313L205.165 9.64692L208.35 13.5793L204.417 16.7636ZM196.617 16.5694L203.699 17.3451L199.801 20.5018L196.617 16.5694ZM199.083 21.0833L191.966 20.3353L195.899 17.1509L199.083 21.0833ZM190.5 28.0335L187.316 24.1012L191.248 20.9168L194.433 24.8491L190.5 28.0335ZM200.652 12.1132L197.467 8.18084L201.4 4.99648L204.584 8.92884L200.652 12.1132ZM188.201 15.6849L195.317 16.4329L191.385 19.6172L188.201 15.6849ZM186.734 23.3831L183.55 19.4507L187.482 16.2663L190.667 20.1987L186.734 23.3831ZM196.913 7.49695L193.729 3.56459L197.661 0.380232L200.846 4.31259L196.913 7.49695ZM182.996 18.7668L179.812 14.8345L183.744 11.6501L186.929 15.5825L182.996 18.7668Z" fill="white"/>
</svg>
