<?xml version="1.0" encoding="UTF-8"?><svg xmlns="http://www.w3.org/2000/svg" viewBox="0 0 147.31 165.23"><defs><style>.d{fill:#13100e;}</style></defs><g id="a"/><g id="b"><g id="c"><path class="d" d="M4.49,0L.9,127.92l-.26,9.21-.64,22.72,143.67,5.37,3.64-127.17L4.49,0ZM143.07,142.95v-24.39l-7.88-11.03-1.67-2.97,.65-3.62-.93-.74,.74-1.95,1.2-3.34-.83-2.6,.65-4.54,1.48,.46,.46-7-2.04-4.22,1.67-2.32-.93-5.93-1.95-6.4-2.97-1.67-.46-6.49-2.04-.56-2.6-3.06v-1.3l-1.11,.83v1.85h-2.13l-2.23-3.06,3.52-3.62v-5.1l-7.14-4.36-7.6-1.3-8.53,4.45-7.05,2.32,2.23,4.73-3.25-1.95-6.21,.28-2.88,2.32-2.6,17.06-2.23-1.21-3.52-4.63-2.04,2.78-3.15-6.77-7.32-4.63-6.12-2.88-4.36-5.47-2.5-1.86v-2.41l-7.14,.83,.74,4.27h-2.69l2.13,7.23-.62,14.67s-1.82,10.03-2.13,9.71c-5.67,1.89-3.47,3.15-3.47,3.15H13.24l-1.58,8.19v21.74l-1.58,5.67-1.26,3.78,2.84,5.67-1.89,6.3H2.14L5.68,1.6,146.04,39l-2.97,103.95Z"/></g></g></svg>